<svg xmlns="http://www.w3.org/2000/svg" xmlns:xlink="http://www.w3.org/1999/xlink" width="480" zoomAndPan="magnify" viewBox="0 0 360 82.499998" height="110" preserveAspectRatio="xMidYMid meet" version="1.0"><defs><filter x="0%" y="0%" width="100%" height="100%" id="5eb52d72ee"><feColorMatrix values="0 0 0 0 1 0 0 0 0 1 0 0 0 0 1 0 0 0 1 0" color-interpolation-filters="sRGB"/></filter><mask id="94cc9d78da"><g filter="url(#5eb52d72ee)"><rect x="-36" width="432" fill="#000000" y="-8.25" height="98.999997" fill-opacity="0.7"/></g></mask><clipPath id="66b5f19124"><path d="M 311 0.367188 L 346.191406 0.367188 L 346.191406 49.988281 L 311 49.988281 Z M 311 0.367188 " clip-rule="nonzero"/></clipPath><clipPath id="eece948de7"><path d="M 52 0.367188 L 107 0.367188 L 107 49.988281 L 52 49.988281 Z M 52 0.367188 " clip-rule="nonzero"/></clipPath><clipPath id="4400ed9a79"><path d="M 114 0.367188 L 155 0.367188 L 155 49.988281 L 114 49.988281 Z M 114 0.367188 " clip-rule="nonzero"/></clipPath><clipPath id="3755870f9d"><path d="M 217 0.367188 L 253 0.367188 L 253 49.988281 L 217 49.988281 Z M 217 0.367188 " clip-rule="nonzero"/></clipPath><clipPath id="04c661d899"><path d="M 261 0.367188 L 304 0.367188 L 304 49.988281 L 261 49.988281 Z M 261 0.367188 " clip-rule="nonzero"/></clipPath><clipPath id="474d70abc9"><path d="M 165 0.367188 L 210 0.367188 L 210 49.988281 L 165 49.988281 Z M 165 0.367188 " clip-rule="nonzero"/></clipPath><clipPath id="454bee5621"><path d="M 0.046875 0.367188 L 41 0.367188 L 41 49.988281 L 0.046875 49.988281 Z M 0.046875 0.367188 " clip-rule="nonzero"/></clipPath><clipPath id="3760fabc84"><rect x="0" width="347" y="0" height="50"/></clipPath></defs><g mask="url(#94cc9d78da)"><g transform="matrix(1, 0, 0, 1, 7, 18)"><g clip-path="url(#3760fabc84)"><g clip-path="url(#66b5f19124)"><path fill="#ffffff" d="M 331.34375 20.898438 C 325.128906 18.746094 322.382812 17.3125 322.382812 14.085938 C 322.382812 12.054688 323.695312 8.949219 329.90625 8.949219 C 335.761719 8.949219 341.976562 11.578125 341.976562 11.578125 L 341.976562 2.617188 C 339.347656 1.539062 334.6875 0.464844 329.429688 0.464844 C 320.46875 0.464844 311.863281 5.246094 311.863281 14.683594 C 311.863281 24.125 320.46875 26.75 326.324219 28.664062 C 331.820312 30.457031 335.523438 32.25 335.523438 35.832031 C 335.523438 38.941406 333.371094 41.328125 326.324219 41.328125 C 320.347656 41.328125 313.179688 38.941406 313.179688 38.941406 L 313.179688 47.898438 C 313.179688 47.898438 320.109375 49.8125 326.800781 49.8125 C 335.644531 49.8125 346.039062 46.707031 346.039062 35.117188 C 346.039062 27.230469 339.585938 23.765625 331.34375 20.898438 Z M 331.34375 20.898438 " fill-opacity="1" fill-rule="nonzero"/></g><g clip-path="url(#eece948de7)"><path fill="#ffffff" d="M 106.117188 49.214844 L 106.117188 0.464844 L 92.613281 0.464844 L 79.351562 36.789062 L 66.089844 0.464844 L 52.585938 0.464844 L 52.585938 49.214844 L 61.789062 49.214844 L 61.789062 12.414062 L 75.167969 49.214844 L 82.9375 49.214844 L 96.914062 12.414062 L 96.914062 49.214844 Z M 106.117188 49.214844 " fill-opacity="1" fill-rule="nonzero"/></g><g clip-path="url(#4400ed9a79)"><path fill="#ffffff" d="M 138.375 0.464844 L 120.570312 0.464844 L 120.570312 9.90625 C 129.054688 9.546875 131.445312 9.425781 135.148438 9.425781 C 141.003906 9.425781 144.46875 11.578125 144.46875 17.3125 L 144.46875 21.015625 L 135.148438 21.015625 C 119.496094 21.015625 114.714844 27.351562 114.714844 35.59375 C 114.714844 46.226562 122.601562 49.8125 130.488281 49.8125 C 138.375 49.8125 143.152344 46.109375 144.707031 45.03125 L 144.707031 49.214844 L 154.980469 49.214844 L 154.980469 15.878906 C 154.980469 4.648438 148.890625 0.464844 138.375 0.464844 Z M 144.46875 38.820312 C 141.839844 39.777344 137.058594 41.449219 132.519531 41.449219 C 128.21875 41.449219 124.753906 39.539062 124.753906 34.878906 C 124.753906 30.695312 127.382812 28.542969 133.117188 28.304688 L 144.46875 27.828125 Z M 144.46875 38.820312 " fill-opacity="1" fill-rule="nonzero"/></g><g clip-path="url(#3755870f9d)"><path fill="#ffffff" d="M 228.109375 8.828125 L 252.722656 8.828125 L 252.722656 0.464844 L 217.59375 0.464844 L 217.59375 49.214844 L 252.722656 49.214844 L 252.722656 40.851562 L 228.109375 40.851562 L 228.109375 29.023438 L 249.015625 29.023438 L 249.015625 20.777344 L 228.109375 20.777344 Z M 228.109375 8.828125 " fill-opacity="1" fill-rule="nonzero"/></g><g clip-path="url(#04c661d899)"><path fill="#ffffff" d="M 303.382812 49.214844 L 303.382812 0.464844 L 292.632812 0.464844 L 292.632812 37.625 C 290.003906 38.820312 286.296875 40.730469 280.921875 40.730469 C 274.230469 40.730469 272.199219 37.027344 272.199219 29.140625 L 272.199219 0.464844 L 261.445312 0.464844 L 261.445312 30.457031 C 261.445312 43 265.507812 49.8125 278.292969 49.8125 C 285.460938 49.8125 289.046875 47.183594 292.871094 45.03125 L 292.871094 49.214844 Z M 303.382812 49.214844 " fill-opacity="1" fill-rule="nonzero"/></g><g clip-path="url(#474d70abc9)"><path fill="#ffffff" d="M 184.972656 0.464844 L 165.617188 0.464844 L 165.617188 49.214844 L 184.972656 49.214844 C 201.34375 49.214844 209.589844 41.6875 209.589844 24.363281 C 209.589844 9.1875 200.625 0.464844 184.972656 0.464844 Z M 184.496094 40.730469 L 176.371094 40.730469 L 176.371094 8.949219 L 184.496094 8.949219 C 192.621094 8.949219 198.59375 12.890625 198.59375 24.363281 C 198.59375 35.355469 194.652344 40.730469 184.496094 40.730469 Z M 184.496094 40.730469 " fill-opacity="1" fill-rule="nonzero"/></g><g clip-path="url(#454bee5621)"><path fill="#ffffff" d="M 24.148438 0.464844 L 6.34375 0.464844 L 6.34375 9.90625 C 14.828125 9.546875 17.21875 9.425781 20.921875 9.425781 C 26.777344 9.425781 30.242188 11.578125 30.242188 17.3125 L 30.242188 21.015625 L 20.921875 21.015625 C 5.269531 21.015625 0.488281 27.351562 0.488281 35.59375 C 0.488281 46.226562 8.375 49.8125 16.261719 49.8125 C 24.148438 49.8125 28.925781 46.109375 30.480469 45.03125 L 30.480469 49.214844 L 40.757812 49.214844 L 40.757812 15.878906 C 40.757812 4.648438 34.664062 0.464844 24.148438 0.464844 Z M 30.242188 38.820312 C 27.613281 39.777344 22.832031 41.449219 18.292969 41.449219 C 13.992188 41.449219 10.527344 39.539062 10.527344 34.878906 C 10.527344 30.695312 13.15625 28.542969 18.890625 28.304688 L 30.242188 27.828125 Z M 30.242188 38.820312 " fill-opacity="1" fill-rule="nonzero"/></g></g></g></g></svg>