<svg xmlns="http://www.w3.org/2000/svg" xmlns:xlink="http://www.w3.org/1999/xlink" width="480" zoomAndPan="magnify" viewBox="0 0 360 82.499998" height="110" preserveAspectRatio="xMidYMid meet" version="1.0"><defs><filter x="0%" y="0%" width="100%" height="100%" id="b0f55676c7"><feColorMatrix values="0 0 0 0 1 0 0 0 0 1 0 0 0 0 1 0 0 0 1 0" color-interpolation-filters="sRGB"/></filter><mask id="cb4aa61191"><g filter="url(#b0f55676c7)"><rect x="-36" width="432" fill="#000000" y="-8.25" height="98.999997" fill-opacity="0.75"/></g></mask><clipPath id="a04932e64f"><path d="M 317 14 L 345.804688 14 L 345.804688 39 L 317 39 Z M 317 14 " clip-rule="nonzero"/></clipPath><clipPath id="af230cda5a"><path d="M 0.710938 0.773438 L 78 0.773438 L 78 51.316406 L 0.710938 51.316406 Z M 0.710938 0.773438 " clip-rule="nonzero"/></clipPath><clipPath id="02685f6832"><rect x="0" width="346" y="0" height="52"/></clipPath></defs><g mask="url(#cb4aa61191)"><g transform="matrix(1, 0, 0, 1, 5, 15)"><g clip-path="url(#02685f6832)"><path fill="#ffffff" d="M 116.675781 27.445312 L 128.136719 27.445312 L 128.136719 24.226562 L 116.675781 24.226562 L 116.675781 17.285156 L 133.769531 17.285156 L 133.769531 14.085938 L 113.210938 14.085938 L 113.210938 38.574219 L 134.371094 38.574219 L 134.371094 35.414062 L 116.675781 35.414062 Z M 116.675781 27.445312 " fill-opacity="1" fill-rule="nonzero"/><path fill="#ffffff" d="M 207.105469 28.816406 C 207.105469 33.191406 204.300781 36.085938 200.132812 36.085938 C 196.09375 36.085938 193.5625 33.160156 193.5625 28.816406 L 193.5625 14.144531 L 190.132812 14.144531 L 190.132812 28.980469 C 190.132812 35.660156 194.800781 39.300781 200.109375 39.300781 C 207.953125 39.300781 210.5 33.769531 210.5 28.980469 L 210.5 14.144531 L 207.105469 14.144531 Z M 207.105469 28.816406 " fill-opacity="1" fill-rule="nonzero"/><path fill="#ffffff" d="M 229.59375 14.085938 L 232.996094 14.085938 L 232.996094 38.578125 L 229.59375 38.578125 Z M 229.59375 14.085938 " fill-opacity="1" fill-rule="nonzero"/><path fill="#ffffff" d="M 273.636719 33.277344 L 256.808594 14.085938 L 253.445312 14.085938 L 253.445312 38.574219 L 256.84375 38.574219 L 256.84375 19.230469 L 273.703125 38.574219 L 277.023438 38.574219 L 277.023438 14.085938 L 273.636719 14.085938 Z M 273.636719 33.277344 " fill-opacity="1" fill-rule="nonzero"/><path fill="#ffffff" d="M 297.667969 14.085938 L 301.070312 14.085938 L 301.070312 38.578125 L 297.667969 38.578125 Z M 297.667969 14.085938 " fill-opacity="1" fill-rule="nonzero"/><g clip-path="url(#a04932e64f)"><path fill="#ffffff" d="M 334.167969 25.285156 L 344.039062 14.058594 L 339.84375 14.058594 L 332.003906 22.859375 L 324.382812 14.058594 L 319.9375 14.058594 L 329.460938 25.292969 L 317.546875 38.570312 L 321.898438 38.570312 L 331.667969 27.667969 L 340.984375 38.570312 L 345.703125 38.570312 Z M 334.167969 25.285156 " fill-opacity="1" fill-rule="nonzero"/></g><path fill="#ffffff" d="M 169.335938 26.316406 C 169.335938 29.773438 168.257812 32.027344 166.277344 33.949219 L 164.433594 31.746094 L 160.488281 31.742188 L 163.71875 35.574219 C 162.929688 35.964844 161.507812 36.285156 160.398438 36.292969 C 155.324219 36.328125 151.28125 32.09375 151.28125 26.34375 L 151.277344 26.25 C 151.277344 20.394531 155.066406 16.253906 160.167969 16.222656 C 165.273438 16.179688 169.339844 20.394531 169.339844 26.210938 L 169.339844 26.316406 Z M 160.246094 13.089844 C 153.179688 13.136719 147.734375 18.664062 147.734375 26.371094 L 147.734375 26.464844 C 147.734375 34.125 153.3125 39.519531 160.328125 39.46875 C 162.128906 39.453125 164.261719 38.96875 165.855469 38.113281 L 167.789062 40.414062 L 171.75 40.410156 L 168.359375 36.40625 C 171.132812 34.222656 172.878906 30.628906 172.878906 26.1875 L 172.878906 26.09375 C 172.882812 18.476562 167.28125 13.039062 160.246094 13.089844 " fill-opacity="1" fill-rule="nonzero"/><path fill="#ffffff" d="M 92.148438 36.933594 C 94.734375 36.933594 96.785156 34.800781 96.785156 32.269531 L 96.785156 32.246094 C 96.785156 29.710938 94.757812 27.605469 92.148438 27.605469 C 89.5625 27.605469 87.511719 29.738281 87.511719 32.273438 L 87.511719 32.300781 C 87.511719 34.828125 89.539062 36.933594 92.148438 36.933594 M 92.148438 36.425781 C 89.804688 36.425781 88.046875 34.5625 88.046875 32.296875 L 88.046875 32.269531 C 88.046875 30.003906 89.828125 28.113281 92.148438 28.113281 C 94.492188 28.113281 96.25 29.980469 96.25 32.246094 L 96.25 32.269531 C 96.25 34.535156 94.46875 36.425781 92.148438 36.425781 M 90.230469 34.589844 L 91.402344 34.589844 L 91.402344 33.070312 L 92.148438 33.070312 L 93.1875 34.589844 L 94.601562 34.589844 L 93.375 32.859375 C 94.015625 32.644531 94.441406 32.140625 94.441406 31.363281 C 94.441406 30.277344 93.613281 29.765625 92.492188 29.765625 L 90.230469 29.765625 Z M 91.40625 32.113281 L 91.40625 30.777344 L 92.414062 30.777344 C 92.917969 30.777344 93.242188 31.019531 93.242188 31.445312 C 93.242188 31.84375 92.949219 32.113281 92.414062 32.113281 Z M 91.40625 32.113281 " fill-opacity="1" fill-rule="nonzero"/><g clip-path="url(#af230cda5a)"><path fill="#ffffff" d="M 39.3125 0.777344 L 31.589844 3.464844 L 31.589844 43.964844 L 26.445312 42.175781 L 26.445312 5.265625 L 11.003906 10.660156 L 11.003906 36.78125 L 5.859375 34.984375 L 5.859375 12.453125 L 0.710938 14.253906 L 0.710938 38.640625 L 16.152344 44.03125 L 16.152344 14.308594 L 21.300781 12.515625 L 21.300781 45.828125 L 36.742188 51.21875 L 36.742188 7.121094 L 39.3125 6.222656 L 41.882812 7.121094 L 41.882812 51.21875 L 57.332031 45.828125 L 57.332031 12.515625 L 62.46875 14.308594 L 62.46875 44.03125 L 77.910156 38.640625 L 77.910156 14.253906 L 72.761719 12.453125 L 72.761719 34.984375 L 67.621094 36.78125 L 67.621094 10.660156 L 52.175781 5.265625 L 52.175781 42.175781 L 47.027344 43.964844 L 47.027344 3.464844 Z M 39.3125 0.777344 " fill-opacity="1" fill-rule="nonzero"/></g></g></g></g></svg>