<svg xmlns="http://www.w3.org/2000/svg" xmlns:xlink="http://www.w3.org/1999/xlink" width="480" zoomAndPan="magnify" viewBox="0 0 360 82.499998" height="110" preserveAspectRatio="xMidYMid meet" version="1.0"><defs><filter x="0%" y="0%" width="100%" height="100%" id="04317c64db"><feColorMatrix values="0 0 0 0 1 0 0 0 0 1 0 0 0 0 1 0 0 0 1 0" color-interpolation-filters="sRGB"/></filter><mask id="a800bcb9ec"><g filter="url(#04317c64db)"><rect x="-36" width="432" fill="#000000" y="-8.25" height="98.999997" fill-opacity="0.7"/></g></mask><clipPath id="acb4d7fa46"><path d="M 0.480469 1.15625 L 81 1.15625 L 81 80.871094 L 0.480469 80.871094 Z M 0.480469 1.15625 " clip-rule="nonzero"/></clipPath><clipPath id="3b7b3c9c3c"><rect x="0" width="344" y="0" height="81"/></clipPath></defs><g mask="url(#a800bcb9ec)"><g transform="matrix(1, 0, 0, 1, 8, 0)"><g clip-path="url(#3b7b3c9c3c)"><path fill="#ffffff" d="M 102.539062 50.773438 C 102.539062 51.738281 102.335938 52.585938 101.925781 53.335938 C 101.519531 54.082031 100.953125 54.660156 100.203125 55.070312 C 99.457031 55.476562 98.617188 55.683594 97.652344 55.683594 L 92.882812 55.683594 L 92.882812 62.632812 L 98.664062 62.632812 C 100.839844 62.632812 102.789062 62.144531 104.523438 61.167969 C 106.257812 60.195312 107.617188 58.84375 108.605469 57.132812 C 109.589844 55.421875 110.089844 53.496094 110.089844 51.339844 L 110.089844 28.5 L 102.539062 28.5 Z M 122.867188 48.699219 L 138.679688 48.699219 L 138.679688 42.316406 L 122.867188 42.316406 L 122.867188 35.074219 L 140.34375 35.074219 L 140.34375 28.5 L 115.507812 28.5 L 115.507812 62.621094 L 140.832031 62.621094 L 140.832031 56.046875 L 122.867188 56.046875 Z M 143.203125 35.265625 L 153.3125 35.265625 L 153.3125 62.609375 L 160.863281 62.609375 L 160.863281 35.265625 L 170.929688 35.265625 L 170.929688 28.5 L 143.191406 28.5 L 143.191406 35.277344 Z M 196.730469 45.515625 C 196.140625 45.195312 195.496094 44.957031 194.824219 44.777344 C 195.335938 44.628906 195.824219 44.449219 196.277344 44.222656 C 197.523438 43.574219 198.511719 42.667969 199.214844 41.5 C 199.917969 40.332031 200.277344 38.996094 200.277344 37.476562 C 200.277344 35.742188 199.804688 34.1875 198.863281 32.816406 C 197.921875 31.457031 196.59375 30.390625 194.894531 29.621094 C 193.195312 28.859375 191.246094 28.476562 189.066406 28.476562 L 173.910156 28.476562 L 173.910156 62.597656 L 189.363281 62.597656 C 191.652344 62.597656 193.691406 62.199219 195.496094 61.394531 C 197.285156 60.589844 198.679688 59.480469 199.679688 58.039062 C 200.664062 56.613281 201.164062 54.980469 201.164062 53.144531 C 201.164062 51.453125 200.777344 49.945312 199.996094 48.609375 C 199.214844 47.269531 198.136719 46.238281 196.742188 45.503906 Z M 181.246094 34.222656 L 187.945312 34.222656 C 188.875 34.222656 189.691406 34.394531 190.40625 34.722656 C 191.121094 35.050781 191.675781 35.527344 192.070312 36.148438 C 192.46875 36.761719 192.671875 37.488281 192.671875 38.316406 C 192.671875 39.144531 192.46875 39.925781 192.070312 40.570312 C 191.675781 41.21875 191.121094 41.703125 190.40625 42.054688 C 189.691406 42.40625 188.875 42.578125 187.945312 42.578125 L 181.246094 42.578125 L 181.246094 34.210938 Z M 192.785156 54.867188 C 192.355469 55.511719 191.742188 56.011719 190.960938 56.363281 C 190.167969 56.714844 189.273438 56.882812 188.242188 56.882812 L 181.246094 56.882812 L 181.246094 48.132812 L 188.242188 48.132812 C 189.25 48.132812 190.144531 48.324219 190.9375 48.699219 C 191.71875 49.074219 192.34375 49.59375 192.773438 50.273438 C 193.203125 50.957031 193.433594 51.726562 193.433594 52.597656 C 193.433594 53.472656 193.214844 54.21875 192.785156 54.867188 Z M 226.476562 48.824219 C 228.371094 47.917969 229.832031 46.636719 230.875 44.992188 C 231.917969 43.347656 232.441406 41.445312 232.441406 39.269531 C 232.441406 37.089844 231.929688 35.253906 230.910156 33.621094 C 229.886719 31.988281 228.4375 30.730469 226.566406 29.835938 C 224.695312 28.941406 222.53125 28.5 220.058594 28.5 L 205.121094 28.5 L 205.121094 62.621094 L 212.679688 62.621094 L 212.679688 50.195312 L 217.601562 50.195312 L 224.527344 62.621094 L 233.152344 62.621094 L 225.355469 49.277344 C 225.742188 49.140625 226.125 48.992188 226.488281 48.824219 Z M 224.027344 41.851562 C 223.609375 42.566406 223.007812 43.121094 222.226562 43.496094 C 221.441406 43.882812 220.527344 44.074219 219.472656 44.074219 L 212.667969 44.074219 L 212.667969 34.632812 L 219.472656 34.632812 C 220.527344 34.632812 221.441406 34.824219 222.226562 35.199219 C 223.007812 35.570312 223.609375 36.128906 224.027344 36.832031 C 224.445312 37.53125 224.664062 38.371094 224.664062 39.324219 C 224.664062 40.277344 224.445312 41.117188 224.027344 41.828125 Z M 247.472656 28.5 L 235.285156 62.621094 L 242.960938 62.621094 L 245.375 55.09375 L 258.023438 55.09375 L 260.609375 62.621094 L 268.136719 62.621094 L 255.65625 28.5 Z M 247.085938 49.378906 L 251.007812 37.339844 L 251.472656 35.152344 L 251.9375 37.339844 L 256.132812 49.378906 Z M 270.640625 62.621094 L 278.441406 62.621094 L 278.441406 28.5 L 270.640625 28.5 Z M 305.953125 51.578125 L 291.273438 28.5 L 283.917969 28.5 L 283.917969 62.621094 L 290.808594 62.621094 L 290.808594 39.539062 L 305.410156 62.621094 L 312.847656 62.621094 L 312.847656 28.5 L 305.953125 28.5 Z M 341.84375 47.757812 C 341.105469 46.339844 340.0625 45.152344 338.738281 44.1875 C 337.410156 43.222656 335.882812 42.589844 334.15625 42.261719 L 328.355469 41.070312 C 327.445312 40.855469 326.722656 40.480469 326.1875 39.9375 C 325.65625 39.390625 325.382812 38.710938 325.382812 37.90625 C 325.382812 37.171875 325.578125 36.535156 325.972656 35.992188 C 326.359375 35.449219 326.914062 35.027344 327.617188 34.722656 C 328.320312 34.414062 329.136719 34.269531 330.066406 34.269531 C 330.996094 34.269531 331.835938 34.425781 332.546875 34.746094 C 333.261719 35.0625 333.816406 35.503906 334.214844 36.082031 C 334.613281 36.660156 334.816406 37.304688 334.816406 38.042969 L 342.375 38.042969 C 342.332031 36.058594 341.773438 34.300781 340.734375 32.785156 C 339.691406 31.253906 338.226562 30.0625 336.367188 29.203125 C 334.507812 28.339844 332.378906 27.910156 329.996094 27.910156 C 327.617188 27.910156 325.507812 28.351562 323.660156 29.246094 C 321.8125 30.140625 320.363281 31.378906 319.332031 32.964844 C 318.300781 34.550781 317.777344 36.355469 317.777344 38.382812 C 317.777344 40.027344 318.105469 41.511719 318.773438 42.828125 C 319.441406 44.152344 320.382812 45.253906 321.597656 46.125 C 322.820312 47 324.226562 47.609375 325.835938 47.949219 L 331.980469 49.21875 C 332.988281 49.457031 333.785156 49.902344 334.371094 50.535156 C 334.960938 51.171875 335.246094 51.953125 335.246094 52.90625 C 335.246094 53.664062 335.03125 54.355469 334.601562 54.957031 C 334.167969 55.558594 333.566406 56.023438 332.796875 56.351562 C 332.027344 56.679688 331.121094 56.839844 330.078125 56.839844 C 329.035156 56.839844 328.046875 56.65625 327.199219 56.292969 C 326.347656 55.933594 325.6875 55.410156 325.226562 54.730469 C 324.75 54.0625 324.523438 53.277344 324.523438 52.40625 L 316.960938 52.40625 C 316.996094 54.539062 317.5625 56.40625 318.683594 58.039062 C 319.792969 59.660156 321.324219 60.929688 323.273438 61.835938 C 325.226562 62.746094 327.457031 63.199219 329.976562 63.199219 C 332.492188 63.199219 334.757812 62.734375 336.707031 61.804688 C 338.667969 60.875 340.1875 59.59375 341.289062 57.960938 C 342.386719 56.328125 342.933594 54.480469 342.933594 52.417969 C 342.933594 50.726562 342.558594 49.175781 341.820312 47.746094 Z M 341.84375 47.757812 " fill-opacity="1" fill-rule="nonzero"/><g clip-path="url(#acb4d7fa46)"><path fill="#ffffff" d="M 8.460938 80.832031 L 43.859375 80.832031 L 43.859375 80.84375 C 48.308594 80.84375 52.496094 79.101562 55.664062 75.953125 L 75.46875 56.152344 C 78.582031 53.039062 80.359375 48.738281 80.359375 44.347656 L 80.359375 8.941406 C 80.359375 4.644531 76.863281 1.15625 72.574219 1.15625 L 37.160156 1.15625 C 32.726562 1.15625 28.527344 2.898438 25.367188 6.046875 L 5.5625 25.835938 C 2.453125 28.949219 0.675781 33.25 0.675781 37.640625 L 0.675781 73.046875 C 0.675781 77.347656 4.171875 80.832031 8.460938 80.832031 Z M 13.832031 22.785156 L 27.972656 8.648438 C 30.4375 6.191406 33.699219 4.847656 37.160156 4.847656 L 72.574219 4.847656 C 74.835938 4.847656 76.671875 6.691406 76.671875 8.941406 L 76.671875 44.347656 C 76.671875 47.765625 75.289062 51.117188 72.867188 53.539062 L 58.730469 67.671875 L 58.730469 22.785156 Z M 13.195312 23.421875 L 13.195312 68.320312 L 58.082031 68.320312 L 53.0625 73.339844 C 50.605469 75.785156 47.335938 77.140625 43.871094 77.140625 L 8.460938 77.140625 C 6.199219 77.140625 4.363281 75.296875 4.363281 73.046875 L 4.363281 37.640625 C 4.363281 34.222656 5.746094 30.871094 8.167969 28.449219 Z M 38.242188 58.074219 L 18.886719 58.074219 L 18.886719 62.628906 L 38.242188 62.628906 Z M 38.242188 58.074219 " fill-opacity="1" fill-rule="evenodd"/></g></g></g></g></svg>