<svg height="207.32" viewBox="0 0 207.32 207.32" width="207.32" xmlns="http://www.w3.org/2000/svg" xmlns:xlink="http://www.w3.org/1999/xlink"><linearGradient id="a" gradientUnits="userSpaceOnUse" x1="4.54" x2="203.06" y1="6.53" y2="201.06"><stop offset="0" stop-color="#554b83"/><stop offset="1" stop-color="#765c80"/></linearGradient><path d="m130.38 58.8h-59.3v89.73h50.1c13.78 0 24.95-11.17 24.95-24.95v-49.04h-15.74v-15.74zm-45.62 12.58h31.02v14.07h-31.02zm0 25.01h45.62v14.07h-45.62zm45.62 27.34c0 6.56-5.32 11.88-11.88 11.88h-33.74v-14.07h45.62zm54.94-123.73h-163.32c-12.15 0-22 9.85-22 22v163.32c0 12.15 9.85 22 22 22h163.32c12.15 0 22-9.85 22-22v-163.32c0-12.15-9.85-22-22-22zm-25.13 123.58c0 21.55-17.47 39.01-39.01 39.01h-64.17v-117.86h80.8c8.74 8.74 13.64 13.64 22.38 22.38z" fill="url(#a)"/></svg>