<svg height="207.32" viewBox="0 0 207.32 207.32" width="207.32" xmlns="http://www.w3.org/2000/svg" xmlns:xlink="http://www.w3.org/1999/xlink"><linearGradient id="a" gradientUnits="userSpaceOnUse" x1="4.54" x2="203.06" y1="6.53" y2="201.06"><stop offset="0" stop-color="#554b83"/><stop offset="1" stop-color="#765c80"/></linearGradient><rect fill="url(#a)" height="207.32" rx="22" width="207.32"/><path d="m84.76 71.38h31.02v14.07h-31.02zm33.74 64.23c6.56 0 11.88-5.32 11.88-11.88v-2.19h-45.62v14.07zm-33.74-25.15h45.62v-14.07h-45.62zm61.36-35.92h-15.74v-15.74h-59.3v89.73h50.1c13.78 0 24.95-11.17 24.95-24.95v-49.04zm-8.31-29.81c8.74 8.74 13.64 13.64 22.38 22.38v56.47c0 21.55-17.47 39.01-39.01 39.01h-64.17v-117.86z" fill="#fff"/></svg>