<svg height="98.5" viewBox="0 0 566.93 98.5" width="566.93" xmlns="http://www.w3.org/2000/svg"><g fill="#050505"><path d="m161.63 50.58c0-5.56-.55-10.02-1.64-13.39-1.1-3.37-2.56-5.93-4.4-7.68-1.83-1.75-3.87-2.93-6.11-3.54s-4.52-.91-6.84-.91h-6.42v51.83h6.47c2.42 0 4.76-.39 7.02-1.16s4.29-2.12 6.09-4.04 3.22-4.59 4.27-8.01c1.04-3.42 1.57-7.79 1.57-13.11m12.32.01c0 5.76-.61 10.68-1.84 14.75s-2.91 7.45-5.05 10.13-4.6 4.77-7.37 6.26c-2.78 1.5-5.72 2.55-8.81 3.16-3.1.61-6.2.91-9.29.91h-17.07v-69.71h15.91c4.24 0 8.36.46 12.35 1.36 3.99.91 7.58 2.59 10.76 5.05s5.72 5.94 7.6 10.46c1.88 4.51 2.83 10.39 2.83 17.63m54.26-16.82-1.86 19.12h-7.85v-10.59c-3.6.07-6.72 1.5-9.36 4.31s-4.76 6.77-6.33 11.87v19.22h10.4v7.84h-29.03v-7.84h7.65v-36.09h-7.65v-7.85h15.98l1.96 11.96c2.03-4.44 4.5-7.76 7.4-9.95 2.91-2.19 6.52-3.29 10.84-3.29 2.68 0 5.29.43 7.84 1.28m33.1 43.26c2.12-1.18 3.81-2.81 5.05-4.9v-11.47h-6.08c-4.97 0-8.6.83-10.89 2.5s-3.43 4.07-3.43 7.21c0 2.75.74 4.84 2.21 6.28s3.64 2.16 6.52 2.16c2.29 0 4.49-.59 6.62-1.76m16.81.22c.59.95 1.6 1.65 3.04 2.11l-2.55 7.45c-5.43-.66-8.99-3.04-10.69-7.16-1.9 2.35-4.27 4.14-7.11 5.35s-5.97 1.81-9.37 1.81c-5.23 0-9.38-1.47-12.45-4.41s-4.61-6.83-4.61-11.67c0-5.43 2.14-9.61 6.42-12.55s10.35-4.41 18.19-4.41h7.36v-3.33c0-3.27-.98-5.65-2.94-7.16-1.96-1.5-4.81-2.26-8.53-2.26-1.83 0-3.96.23-6.38.69s-4.87 1.11-7.36 1.96l-2.74-7.75c6.21-2.35 12.26-3.53 18.14-3.53 6.87 0 12.03 1.5 15.5 4.51 3.46 3.01 5.2 7.29 5.2 12.85v23.14c0 1.96.29 3.42.88 4.37m55.94-62.53-3.33 7.65c-3.33-1.44-7.03-2.16-11.08-2.16-3.4 0-5.92.65-7.55 1.96-1.64 1.31-2.45 3.33-2.45 6.08v9.22h17.36l-1.28 8.14h-16.08v39.91h-10.98v-39.91h-11.77v-8.14h11.77v-9.32c0-3.27.83-6.15 2.5-8.63s4-4.41 7.01-5.79c3.01-1.37 6.47-2.06 10.4-2.06 5.62 0 10.79 1.02 15.5 3.04m38.13 71.01c-2.62.72-5.36 1.08-8.24 1.08-5.88 0-10.43-1.52-13.63-4.56s-4.81-7.17-4.81-12.41v-28.05h-11.47v-8.04h11.47v-11.57l10.99-1.27v12.85h17.55l-1.28 8.04h-16.28v27.95c0 2.81.72 4.89 2.16 6.23s3.73 2.01 6.86 2.01c3.47 0 6.67-.82 9.61-2.45l3.92 7.26c-1.96 1.24-4.25 2.22-6.86 2.94m17.7-10.28h10.67v10.67h-10.67zm34.73-29.98c-2 3.11-2.99 7.83-2.99 14.17 0 12.56 3.59 18.83 10.79 18.83 4.32 0 8.01-2.48 11.08-7.45v-24.42c-2.68-3.86-6.08-5.79-10.2-5.79-3.79 0-6.69 1.56-8.68 4.66m29.86-32.51v72.57h-9.71l-.78-6.38c-1.7 2.49-3.79 4.38-6.28 5.69s-5.23 1.96-8.24 1.96c-6.47 0-11.34-2.42-14.61-7.26s-4.9-11.47-4.9-19.91c0-5.29.83-10 2.5-14.12s4.04-7.34 7.11-9.66 6.7-3.48 10.89-3.48c5.3 0 9.64 1.9 13.04 5.69v-26.38zm26.78 31.38c-2.22 2.55-3.5 6.34-3.83 11.38h24.03c-.13-4.9-1.18-8.66-3.14-11.28s-4.77-3.92-8.43-3.92-6.41 1.28-8.63 3.83m.64 30.15c2.58 2.52 5.83 3.78 9.76 3.78 2.42 0 4.72-.38 6.92-1.13 2.19-.75 4.43-1.88 6.72-3.38l4.71 6.67c-2.42 2.03-5.26 3.6-8.53 4.71s-6.7 1.67-10.3 1.67c-7.91 0-14.06-2.47-18.44-7.4-4.38-4.94-6.57-11.52-6.57-19.76 0-5.16.95-9.82 2.84-13.98 1.9-4.15 4.64-7.4 8.24-9.76 3.59-2.35 7.78-3.53 12.55-3.53 6.86 0 12.31 2.31 16.33 6.91 4.02 4.61 6.03 10.94 6.03 18.98 0 1.96-.1 3.6-.29 4.9h-34.33c.33 5.04 1.78 8.81 4.36 11.33m85-40.76-18.34 51.78h-12.75l-18.34-51.78h11.87l13.05 42.66 13.24-42.66h11.28z"/><path d="m23.19 22.27h25.92v11.76h-25.92zm28.2 53.68c5.48 0 9.93-4.44 9.93-9.93v-1.83h-38.13v11.76zm-28.2-21.02h38.12v-11.76h-38.12zm51.28-30.02h-13.16v-13.16h-49.55v74.99h41.87c11.51 0 20.85-9.33 20.85-20.85v-40.98zm-6.95-24.91c7.31 7.3 11.4 11.4 18.71 18.71v47.19c0 18.01-14.6 32.6-32.6 32.6h-53.63v-98.5z"/></g></svg>