<svg height="147.59" viewBox="0 0 566.93 147.59" width="566.93" xmlns="http://www.w3.org/2000/svg" xmlns:xlink="http://www.w3.org/1999/xlink"><linearGradient id="a" gradientUnits="userSpaceOnUse" x1="3.23" x2="144.55" y1="4.65" y2="143.13"><stop offset="0" stop-color="#554b83"/><stop offset="1" stop-color="#765c80"/></linearGradient><path d="m221.69 74.92c0-4.73-.47-8.53-1.4-11.4s-2.18-5.05-3.75-6.54c-1.56-1.49-3.3-2.5-5.2-3.01-1.91-.52-3.85-.78-5.83-.78h-5.47v44.15h5.51c2.07 0 4.06-.33 5.98-.99s3.65-1.81 5.19-3.44c1.53-1.64 2.75-3.91 3.64-6.82s1.33-6.63 1.33-11.17m10.5 0c0 4.91-.52 9.09-1.57 12.56s-2.48 6.35-4.3 8.63-3.92 4.06-6.28 5.34c-2.37 1.28-4.87 2.17-7.51 2.69s-5.28.78-7.92.78h-14.54v-59.38h13.55c3.61 0 7.12.39 10.52 1.16 3.4.78 6.45 2.21 9.16 4.3s4.87 5.06 6.48 8.91c1.6 3.84 2.41 8.85 2.41 15.02m46.23-14.33-1.59 16.29h-6.68v-9.02c-3.06.06-5.72 1.28-7.98 3.68s-4.05 5.76-5.39 10.11v16.38h8.86v6.68h-24.73v-6.68h6.52v-30.74h-6.52v-6.68h13.62l1.67 10.19c1.73-3.79 3.83-6.61 6.31-8.48s5.55-2.8 9.23-2.8c2.28 0 4.51.36 6.68 1.09m28.19 36.82c1.81-1 3.24-2.39 4.3-4.18v-9.77h-5.18c-4.23 0-7.32.71-9.27 2.13s-2.92 3.47-2.92 6.14c0 2.34.63 4.12 1.88 5.35s3.1 1.84 5.56 1.84c1.95 0 3.83-.5 5.64-1.5m14.31.2c.5.81 1.36 1.41 2.59 1.8l-2.17 6.35c-4.62-.56-7.66-2.59-9.11-6.1-1.62 2.01-3.63 3.52-6.06 4.55-2.42 1.03-5.08 1.55-7.98 1.55-4.46 0-7.99-1.25-10.61-3.76s-3.93-5.82-3.93-9.94c0-4.62 1.82-8.19 5.47-10.69 3.65-2.51 8.81-3.76 15.5-3.76h6.27v-2.84c0-2.78-.83-4.82-2.51-6.1-1.67-1.28-4.09-1.92-7.27-1.92-1.56 0-3.37.2-5.43.58-2.06.39-4.15.95-6.27 1.67l-2.34-6.6c5.29-2 10.44-3.01 15.45-3.01 5.85 0 10.25 1.28 13.2 3.84s4.43 6.21 4.43 10.94v19.72c0 1.67.25 2.91.75 3.72m47.67-53.26-2.84 6.52c-2.84-1.22-5.99-1.84-9.44-1.84-2.9 0-5.04.56-6.43 1.67s-2.09 2.84-2.09 5.18v7.85h14.79l-1.09 6.94h-13.7v34h-9.36v-34h-10.02v-6.94h10.02v-7.94c0-2.78.71-5.23 2.13-7.35 1.42-2.11 3.41-3.76 5.97-4.93s5.51-1.76 8.86-1.76c4.79 0 9.19.87 13.2 2.59m32.5 60.49c-2.23.61-4.57.92-7.02.92-5.01 0-8.88-1.3-11.61-3.89s-4.09-6.11-4.09-10.57v-23.89h-9.77v-6.85h9.77v-9.86l9.36-1.09v10.94h14.95l-1.09 6.85h-13.87v23.81c0 2.4.61 4.17 1.84 5.3 1.22 1.14 3.17 1.71 5.85 1.71 2.95 0 5.68-.7 8.19-2.09l3.34 6.18c-1.67 1.06-3.62 1.89-5.85 2.51m15.07-8.73h9.08v9.09h-9.08zm29.58-25.54c-1.7 2.65-2.55 6.67-2.55 12.07 0 10.7 3.06 16.04 9.19 16.04 3.68 0 6.82-2.12 9.44-6.35v-20.8c-2.28-3.29-5.18-4.93-8.69-4.93-3.23 0-5.69 1.32-7.39 3.97m25.44-27.7v61.82h-8.27l-.67-5.43c-1.45 2.12-3.23 3.73-5.35 4.84s-4.46 1.67-7.02 1.67c-5.51 0-9.66-2.06-12.45-6.18s-4.18-9.77-4.18-16.96c0-4.51.71-8.52 2.13-12.03s3.44-6.25 6.06-8.23 5.71-2.96 9.27-2.96c4.51 0 8.22 1.62 11.11 4.84v-22.47l9.36 1.09zm22.81 26.74c-1.89 2.17-2.98 5.4-3.26 9.69h20.47c-.11-4.18-1-7.38-2.67-9.61s-4.07-3.34-7.18-3.34-5.46 1.09-7.35 3.26m.54 25.69c2.2 2.14 4.97 3.22 8.31 3.22 2.06 0 4.02-.32 5.89-.96 1.86-.64 3.77-1.6 5.72-2.88l4.01 5.68c-2.06 1.73-4.48 3.06-7.27 4.01s-5.71 1.42-8.77 1.42c-6.74 0-11.98-2.1-15.71-6.31-3.73-4.2-5.6-9.81-5.6-16.83 0-4.4.81-8.37 2.42-11.9 1.62-3.54 3.95-6.31 7.02-8.31 3.06-2.01 6.63-3.01 10.69-3.01 5.85 0 10.48 1.96 13.91 5.89s5.14 9.32 5.14 16.17c0 1.67-.08 3.06-.25 4.18h-29.24c.28 4.29 1.52 7.5 3.72 9.65m72.41-34.74-15.62 44.11h-10.86l-15.62-44.11h10.11l11.11 36.34 11.28-36.34h9.61z" fill="#544b84"/><path d="m92.81 41.85h-42.22v63.88h35.66c9.81 0 17.76-7.95 17.76-17.76v-34.91h-11.21v-11.21zm-32.47 8.96h22.08v10.01h-22.08zm0 17.81h32.47v10.01h-32.47zm32.47 19.46c0 4.67-3.79 8.45-8.45 8.45h-24.02v-10.01h32.47zm39.12-88.08h-116.27c-8.65 0-15.66 7.01-15.66 15.66v116.27c0 8.65 7.01 15.66 15.66 15.66h116.27c8.65 0 15.66-7.01 15.66-15.66v-116.27c0-8.65-7.01-15.66-15.66-15.66zm-17.89 87.97c0 15.34-12.43 27.77-27.77 27.77h-45.68v-83.9h57.52c6.22 6.22 9.71 9.71 15.94 15.94v40.2z" fill="url(#a)"/></svg>